<svg width="25" height="25" viewBox="0 0 25 25" fill="none"
    xmlns="http://www.w3.org/2000/svg">
    <path d="M12.1428 13.8571C14.5098 13.8571 16.4285 11.9384 16.4285 9.57142C16.4285 7.20449 14.5098 5.28571 12.1428 5.28571C9.7759 5.28571 7.85712 7.20449 7.85712 9.57142C7.85712 11.9384 9.7759 13.8571 12.1428 13.8571Z" stroke="white" stroke-width="1.71429" stroke-linecap="round" stroke-linejoin="round"/>
    <path d="M4.82288 20.5429C5.58786 19.2872 6.663 18.2494 7.94495 17.5293C9.22689 16.8091 10.6725 16.4309 12.1429 16.4309C13.6132 16.4309 15.0589 16.8091 16.3408 17.5293C17.6227 18.2494 18.6979 19.2872 19.4629 20.5429" stroke="white" stroke-width="1.71429" stroke-linecap="round" stroke-linejoin="round"/>
    <path d="M12.1429 23.2857C18.2969 23.2857 23.2857 18.2969 23.2857 12.1429C23.2857 5.98883 18.2969 1 12.1429 1C5.98883 1 1 5.98883 1 12.1429C1 18.2969 5.98883 23.2857 12.1429 23.2857Z" stroke="white" stroke-width="1.71429" stroke-linecap="round" stroke-linejoin="round"/>
</svg>
