<svg width="20" height="25" viewBox="0 0 20 25" fill="none"
    xmlns="http://www.w3.org/2000/svg">
    <path d="M8.11646 1.09461C8.01281 1.03269 7.89433 1 7.7736 1C7.65287 1 7.53439 1.03269 7.43074 1.09461C7.34525 1.16234 7.28756 1.25908 7.26861 1.3665C7.24965 1.47391 7.27074 1.58455 7.32789 1.67746C9.43646 5.32889 9.88217 10.3003 7.00217 13.0432C5.89411 12.112 5.0144 10.9391 4.43074 9.61461C3.36571 10.2061 2.48306 11.0781 1.87863 12.1358C1.2742 13.1936 0.971076 14.3967 1.00217 15.6146C1.04565 16.6882 1.30343 17.7423 1.76035 18.7148C2.21727 19.6873 2.8641 20.5586 3.66277 21.2774C4.46144 21.9962 5.39582 22.548 6.41093 22.9003C7.42603 23.2526 8.50135 23.3984 9.5736 23.3289C15.0936 23.3289 17.9565 19.9003 18.145 15.6146C18.3679 10.4717 14.7165 4.14603 8.11646 1.09461Z" stroke="white" stroke-width="1.71429" stroke-linecap="round" stroke-linejoin="round"/>
    <path d="M11.2857 16.4286C11.2857 17.3379 10.9245 18.21 10.2815 18.853C9.6385 19.4959 8.76643 19.8572 7.85712 19.8572" stroke="white" stroke-width="1.71429" stroke-linecap="round" stroke-linejoin="round"/>
</svg>
