<svg width="25" height="25" viewBox="0 0 25 25" fill="none"
    xmlns="http://www.w3.org/2000/svg">
    <path d="M12.1429 23.2857C18.2969 23.2857 23.2857 18.2969 23.2857 12.1429C23.2857 5.98883 18.2969 1 12.1429 1C5.98883 1 1 5.98883 1 12.1429C1 18.2969 5.98883 23.2857 12.1429 23.2857Z" stroke="white" stroke-width="1.71429" stroke-linecap="round" stroke-linejoin="round"/>
    <path d="M21.5371 6.14288H14.68C13.7707 6.14288 12.8986 6.50411 12.2556 7.14709C11.6126 7.79007 11.2514 8.66214 11.2514 9.57146C11.2514 10.4808 11.6126 11.3528 12.2556 11.9958C12.8986 12.6388 13.7707 13 14.68 13C15.1346 13 15.5707 13.1806 15.8922 13.5021C16.2136 13.8236 16.3943 14.2597 16.3943 14.7143V22.4286" stroke="white" stroke-width="1.71429" stroke-linecap="round" stroke-linejoin="round"/>
    <path d="M1.13715 13.8571H5.28572C6.19503 13.8571 7.0671 14.2183 7.71008 14.8613C8.35307 15.5043 8.71429 16.3764 8.71429 17.2857V22.7543" stroke="white" stroke-width="1.71429" stroke-linecap="round" stroke-linejoin="round"/>
</svg>
