<svg width="18" height="22" viewBox="0 0 18 22" fill="none"
    xmlns="http://www.w3.org/2000/svg">
    <path d="M0.968862 19.1314C0.968021 19.4398 1.05038 19.7427 1.20727 20.0082C1.36415 20.2737 1.58975 20.492 1.86029 20.64C2.1209 20.7905 2.41651 20.8697 2.71743 20.8697C3.01835 20.8697 3.31397 20.7905 3.57458 20.64L15.9003 12.5829C16.1409 12.4275 16.3387 12.2142 16.4757 11.9627C16.6127 11.7111 16.6844 11.4293 16.6844 11.1429C16.6844 10.8564 16.6127 10.5746 16.4757 10.323C16.3387 10.0715 16.1409 9.85827 15.9003 9.70286L3.54029 1.71429C3.27969 1.56383 2.98407 1.48462 2.68315 1.48462C2.38223 1.48462 2.08661 1.56383 1.82601 1.71429C1.55547 1.86231 1.32987 2.08058 1.17298 2.34607C1.0161 2.61157 0.933735 2.91448 0.934577 3.22286L0.968862 19.1314Z" stroke="white" stroke-width="1.71429" stroke-linecap="round" stroke-linejoin="round"/>
</svg>
