<svg width="25" height="25" viewBox="0 0 25 25" fill="none"
    xmlns="http://www.w3.org/2000/svg">
    <path d="M7.6488 1H3.36309C2.41632 1 1.6488 1.76751 1.6488 2.71429V21.5714C1.6488 22.5182 2.41632 23.2857 3.36309 23.2857H7.6488C8.59558 23.2857 9.36309 22.5182 9.36309 21.5714V2.71429C9.36309 1.76751 8.59558 1 7.6488 1Z" stroke="white" stroke-width="1.71429" stroke-linecap="round" stroke-linejoin="round"/>
    <path d="M22.2202 1H17.9345C16.9877 1 16.2202 1.76751 16.2202 2.71429V21.5714C16.2202 22.5182 16.9877 23.2857 17.9345 23.2857H22.2202C23.167 23.2857 23.9345 22.5182 23.9345 21.5714V2.71429C23.9345 1.76751 23.167 1 22.2202 1Z" stroke="white" stroke-width="1.71429" stroke-linecap="round" stroke-linejoin="round"/>
</svg>
