s<svg width="32" height="32" viewBox="0 0 32 32" fill="none"
    xmlns="http://www.w3.org/2000/svg">
    <path d="M16 31C24.2843 31 31 24.2843 31 16C31 7.71573 24.2843 1 16 1C7.71573 1 1 7.71573 1 16C1 24.2843 7.71573 31 16 31Z" fill="white" stroke="white" stroke-width="1.71429" stroke-linecap="round" stroke-linejoin="round"/>
    <path d="M12.6129 20.9663C12.6159 21.1391 12.6662 21.3078 12.7583 21.454C12.8504 21.6003 12.9809 21.7185 13.1355 21.7958C13.2899 21.883 13.4642 21.9288 13.6415 21.9288C13.8188 21.9288 13.9931 21.883 14.1475 21.7958L21.3226 17.358C21.4787 17.2828 21.6104 17.165 21.7026 17.0183C21.7948 16.8715 21.8437 16.7018 21.8437 16.5285C21.8437 16.3552 21.7948 16.1854 21.7026 16.0387C21.6104 15.8919 21.4787 15.7742 21.3226 15.699L14.1475 11.2944C13.9931 11.2072 13.8188 11.1613 13.6415 11.1613C13.4642 11.1613 13.2899 11.2072 13.1355 11.2944C12.9809 11.3717 12.8504 11.4899 12.7583 11.6361C12.6662 11.7824 12.6159 11.9511 12.6129 12.1239V20.9663Z" fill="#5C3434"/>
</svg>
