<svg width="25" height="25" viewBox="0 0 25 25" fill="none"
    xmlns="http://www.w3.org/2000/svg">
    <path d="M1.32874 1V23.2857" stroke="white" stroke-width="1.71429" stroke-linecap="round" stroke-linejoin="round"/>
    <path d="M23.6145 20.1314C23.6153 20.4398 23.533 20.7427 23.3761 21.0082C23.2192 21.2737 22.9936 21.492 22.7231 21.64C22.4625 21.7905 22.1668 21.8697 21.8659 21.8697C21.565 21.8697 21.2694 21.7905 21.0088 21.64L8.68306 13.5829C8.44247 13.4275 8.24465 13.2142 8.10767 12.9627C7.97069 12.7111 7.89893 12.4293 7.89893 12.1429C7.89893 11.8564 7.97069 11.5746 8.10767 11.323C8.24465 11.0715 8.44247 10.8583 8.68306 10.7029L21.0431 2.71429C21.3037 2.56383 21.5993 2.48462 21.9002 2.48462C22.2011 2.48462 22.4967 2.56383 22.7573 2.71429C23.0279 2.86231 23.2535 3.08058 23.4104 3.34607C23.5673 3.61157 23.6496 3.91448 23.6488 4.22286L23.6145 20.1314Z" stroke="white" stroke-width="1.71429" stroke-linecap="round" stroke-linejoin="round"/>
</svg>
