<svg width="25" height="16" viewBox="0 0 25 16" fill="none"
    xmlns="http://www.w3.org/2000/svg">
    <path d="M8.73582 13.7371C8.01838 14.3519 7.10908 14.6975 6.16439 14.7143C5.47253 14.7806 4.77454 14.6932 4.12043 14.4582C3.46631 14.2232 2.87225 13.8465 2.38078 13.355C1.88931 12.8636 1.5126 12.2695 1.27761 11.6154C1.04262 10.9613 0.955176 10.2633 1.02154 9.57143C0.955176 8.87956 1.04262 8.18158 1.27761 7.52746C1.5126 6.87335 1.88931 6.27929 2.38078 5.78782C2.87225 5.29635 3.46631 4.91963 4.12043 4.68464C4.77454 4.44966 5.47253 4.36221 6.16439 4.42857C10.8787 4.42857 13.4501 14.7143 18.1644 14.7143C18.8563 14.7806 19.5542 14.6932 20.2084 14.4582C20.8625 14.2232 21.4565 13.8465 21.948 13.355C22.4395 12.8636 22.8162 12.2695 23.0512 11.6154C23.2862 10.9613 23.3736 10.2633 23.3073 9.57143C23.3736 8.87956 23.2862 8.18158 23.0512 7.52746C22.8162 6.87335 22.4395 6.27929 21.948 5.78782C21.4565 5.29635 20.8625 4.91963 20.2084 4.68464C19.5542 4.44966 18.8563 4.36221 18.1644 4.42857H14.7358L18.1644 1" stroke="white" stroke-width="1.71429" stroke-linecap="round" stroke-linejoin="round"/>
</svg>
