<svg width="25" height="19" viewBox="0 0 25 19" fill="none"
    xmlns="http://www.w3.org/2000/svg">
    <path d="M5.28571 6.12169H2.71429C2.25963 6.12169 1.82359 6.3023 1.5021 6.62379C1.18061 6.94528 1 7.38132 1 7.83597V11.2645C1 11.7192 1.18061 12.1552 1.5021 12.4767C1.82359 12.7982 2.25963 12.9788 2.71429 12.9788H5.28571V6.12169Z" stroke="white" stroke-width="1.71429" stroke-linecap="round" stroke-linejoin="round"/>
    <path d="M5.28577 12.9788L11.9886 17.796C12.237 17.9678 12.5263 18.071 12.8273 18.0951C13.1284 18.1192 13.4304 18.0633 13.7029 17.9331C13.9984 17.8004 14.2503 17.5866 14.4293 17.3166C14.6083 17.0465 14.7071 16.7313 14.7143 16.4074V2.69312C14.7217 2.38527 14.6459 2.08113 14.4951 1.81265C14.3443 1.54418 14.1239 1.32129 13.8572 1.16741C13.5847 1.03724 13.2826 0.981378 12.9816 1.00546C12.6806 1.02954 12.3913 1.13272 12.1429 1.30455L5.28577 6.12169" stroke="white" stroke-width="1.71429" stroke-linecap="round" stroke-linejoin="round"/>
    <path d="M21.5714 4.40741C22.7633 5.8484 23.3746 7.68232 23.2857 9.55027C23.26 11.6674 22.668 13.7391 21.5714 15.5503" stroke="white" stroke-width="1.71429" stroke-linecap="round" stroke-linejoin="round"/>
    <path d="M18.1428 6.97884C18.7388 7.69933 19.0444 8.61629 19 9.55026C19.0444 10.4842 18.7388 11.4012 18.1428 12.1217" stroke="white" stroke-width="1.71429" stroke-linecap="round" stroke-linejoin="round"/>
</svg>
