<svg width="25" height="25" viewBox="0 0 25 25" fill="none"
    xmlns="http://www.w3.org/2000/svg">
    <path d="M12.9486 11.9674C12.6944 12.0778 12.4201 12.1348 12.1429 12.1348C11.8657 12.1348 11.5915 12.0778 11.3372 11.9674L1.56576 7.44167C1.40709 7.36164 1.27374 7.23914 1.18058 7.0878C1.08741 6.93647 1.03809 6.76224 1.03809 6.58453C1.03809 6.40682 1.08741 6.23259 1.18058 6.08126C1.27374 5.92992 1.40709 5.80742 1.56576 5.72739L11.3372 1.16739C11.5915 1.05697 11.8657 1 12.1429 1C12.4201 1 12.6944 1.05697 12.9486 1.16739L22.72 5.6931C22.8787 5.77313 23.0121 5.89563 23.1052 6.04697C23.1984 6.1983 23.2477 6.37253 23.2477 6.55024C23.2477 6.72796 23.1984 6.90218 23.1052 7.05352C23.0121 7.20485 22.8787 7.32735 22.72 7.40739L12.9486 11.9674Z" stroke="white" stroke-width="1.71429" stroke-linecap="round" stroke-linejoin="round"/>
    <path d="M23.2857 12.7388L12.8286 17.556C12.6052 17.6578 12.3626 17.7105 12.1171 17.7105C11.8717 17.7105 11.6291 17.6578 11.4057 17.556L1 12.7388" stroke="white" stroke-width="1.71429" stroke-linecap="round" stroke-linejoin="round"/>
    <path d="M23.2857 18.3102L12.8286 23.1274C12.6052 23.2293 12.3626 23.282 12.1171 23.282C11.8717 23.282 11.6291 23.2293 11.4057 23.1274L1 18.3102" stroke="white" stroke-width="1.71429" stroke-linecap="round" stroke-linejoin="round"/>
</svg>
